<?xml version="1.0" encoding="UTF-8"?>
<svg width="23px" height="24px" viewBox="0 0 23 24" version="1.1" xmlns="http://www.w3.org/2000/svg" xmlns:xlink="http://www.w3.org/1999/xlink">
    <title>590256EE-2FCE-4FB3-B5E7-507BEAEE06C1@2x</title>
    <defs>
        <linearGradient x1="50%" y1="0%" x2="50%" y2="100%" id="linearGradient-1">
            <stop stop-color="#F51932" offset="0%"></stop>
            <stop stop-color="#FF00C4" offset="100%"></stop>
        </linearGradient>
    </defs>
    <g id="Page-1" stroke="none" stroke-width="1" fill="none" fill-rule="evenodd">
        <g id="ICONS" transform="translate(-323.000000, -621.000000)" fill-rule="nonzero">
            <g id="bran-loss" transform="translate(303.000000, 459.000000)">
                <g id="Group-6" transform="translate(20.000000, 162.818019)">
                    <path d="M23,11.5 C23,9.99988889 21.9777778,8.70422222 20.5798889,8.30555556 C20.6565556,8.01422222 20.7,7.71522222 20.7,7.41111111 C20.7,5.43822222 19.0951111,3.83333333 17.1222222,3.83333333 C17.089,3.83333333 17.0583333,3.83333333 17.0251111,3.83588889 C17.089,3.58544444 17.1222222,3.32733333 17.1222222,3.06666667 C17.1222222,1.37488889 15.7473333,0 14.0555556,0 C12.9898889,0 12.0494444,0.546888889 11.5,1.37488889 C10.9505556,0.546888889 10.0101111,0 8.94444444,0 C7.25266667,0 5.87777778,1.37488889 5.87777778,3.06666667 C5.87777778,3.32733333 5.911,3.58544444 5.97488889,3.83588889 C3.96622222,3.77966667 2.3,5.405 2.3,7.41111111 C2.3,7.71522222 2.34344444,8.01422222 2.42011111,8.30555556 C1.02222222,8.70422222 0,9.99988889 0,11.5 C0,13.0486667 1.04522222,14.3443333 2.484,14.7148889 C2.36388889,15.0777778 2.3,15.4585556 2.3,15.8444444 C2.3,17.4544444 3.35544444,18.8318889 4.86322222,19.274 C4.86066667,19.3225556 4.85555556,19.3711111 4.85555556,19.4222222 C4.85555556,21.3951111 6.46044444,23 8.43333333,23 C9.73666667,23 10.8738889,22.2972222 11.5,21.2545556 C12.1261111,22.2972222 13.2633333,23 14.5666667,23 C16.5395556,23 18.1444444,21.3951111 18.1444444,19.4222222 C18.1444444,19.3711111 18.1393333,19.3225556 18.1367778,19.274 C19.6445556,18.8318889 20.7,17.4544444 20.7,15.8444444 C20.7,15.4585556 20.6361111,15.0777778 20.516,14.7148889 C21.9547778,14.3443333 23,13.0486667 23,11.5 Z" id="Path" fill="#000000"></path>
                    <path d="M8.43333333,21.9777778 C7.02522222,21.9777778 5.87777778,20.8303333 5.87777778,19.4222222 C5.87777778,18.0141111 7.02522222,16.8666667 8.43333333,16.8666667 C8.71444444,16.8666667 8.94444444,16.6366667 8.94444444,16.3555556 C8.94444444,16.0744444 8.71444444,15.8444444 8.43333333,15.8444444 C6.86677778,15.8444444 5.53533333,16.859 5.05233333,18.262 C4.03011111,17.917 3.32222222,16.9586667 3.32222222,15.8444444 C3.32222222,15.3972222 3.44233333,14.9525556 3.66977778,14.5641111 C3.75922222,14.4082222 3.76177778,14.2165556 3.67488889,14.0606667 C3.588,13.9022222 3.42444444,13.8025556 3.24555556,13.7974444 C1.99844444,13.754 1.02222222,12.7445556 1.02222222,11.5 C1.02222222,10.419 1.79144444,9.49133333 2.82133333,9.26133333 C3.46533333,10.3218889 4.623,10.9888889 5.87777778,10.9888889 C6.15888889,10.9888889 6.38888889,10.7588889 6.38888889,10.4777778 C6.38888889,10.1966667 6.15888889,9.96666667 5.87777778,9.96666667 C4.88877778,9.96666667 3.979,9.384 3.56244444,8.48444444 C3.40144444,8.142 3.32222222,7.78166667 3.32222222,7.41111111 C3.32222222,6.003 4.46966667,4.85555556 5.87777778,4.85555556 C6.14355556,4.85555556 6.40933333,4.899 6.66744444,4.98077778 C6.87444444,5.04722222 7.10188889,4.97566667 7.23477778,4.80188889 C7.36511111,4.62811111 7.37277778,4.39044444 7.25011111,4.209 C7.02011111,3.87166667 6.9,3.47555556 6.9,3.06666667 C6.9,1.93966667 7.81744444,1.02222222 8.94444444,1.02222222 C10.0714444,1.02222222 10.9888889,1.93966667 10.9888889,3.06666667 L10.9888889,7.66666667 L10.9888889,8.43333333 L10.9888889,12.0111111 C10.9888889,12.7164444 10.4164444,13.2888889 9.71111111,13.2888889 C9.00577778,13.2888889 8.43333333,12.7164444 8.43333333,12.0111111 C8.43333333,11.73 8.20333333,11.5 7.92222222,11.5 C7.64111111,11.5 7.41111111,11.73 7.41111111,12.0111111 C7.41111111,13.2786667 8.44355556,14.3111111 9.71111111,14.3111111 C10.1838889,14.3111111 10.6234444,14.168 10.9888889,13.9226667 L10.9888889,19.4222222 C10.9888889,20.8303333 9.84144444,21.9777778 8.43333333,21.9777778 Z" id="Path" fill="url(#linearGradient-1)"></path>
                    <path d="M19.7544444,13.7948889 C19.5755556,13.8 19.412,13.9022222 19.3251111,14.0581111 C19.2382222,14.214 19.2407778,14.4082222 19.3302222,14.5615556 C19.5576667,14.9525556 19.6777778,15.3972222 19.6777778,15.8444444 C19.6777778,16.9586667 18.9698889,17.917 17.9476667,18.262 C17.4646667,16.859 16.1332222,15.8444444 14.5666667,15.8444444 C14.2855556,15.8444444 14.0555556,16.0744444 14.0555556,16.3555556 C14.0555556,16.6366667 14.2855556,16.8666667 14.5666667,16.8666667 C15.9747778,16.8666667 17.1222222,18.0141111 17.1222222,19.4222222 C17.1222222,20.8303333 15.9747778,21.9777778 14.5666667,21.9777778 C13.1585556,21.9777778 12.0111111,20.8303333 12.0111111,19.4222222 L12.0111111,12.7777778 L12.0111111,12.0111111 L12.0111111,8.43333333 C12.0111111,7.728 12.5835556,7.15555556 13.2888889,7.15555556 C13.9942222,7.15555556 14.5666667,7.728 14.5666667,8.43333333 C14.5666667,8.71444444 14.7966667,8.94444444 15.0777778,8.94444444 C15.3588889,8.94444444 15.5888889,8.71444444 15.5888889,8.43333333 C15.5888889,7.16577778 14.5564444,6.13333333 13.2888889,6.13333333 C12.8161111,6.13333333 12.3765556,6.27644444 12.0111111,6.52177778 L12.0111111,3.06666667 C12.0111111,1.93966667 12.9285556,1.02222222 14.0555556,1.02222222 C15.1825556,1.02222222 16.1,1.93966667 16.1,3.06666667 C16.1,3.47555556 15.9798889,3.87166667 15.7524444,4.209 C15.6297778,4.39044444 15.6374444,4.62811111 15.7677778,4.80188889 C15.8981111,4.97566667 16.1255556,5.04722222 16.3351111,4.98077778 C16.5906667,4.899 16.8564444,4.85555556 17.1222222,4.85555556 C18.5303333,4.85555556 19.6777778,6.003 19.6777778,7.41111111 C19.6777778,7.78166667 19.596,8.142 19.4375556,8.48444444 C19.4375556,8.48444444 19.4375556,8.48444444 19.4375556,8.48444444 C19.021,9.384 18.1112222,9.96666667 17.1222222,9.96666667 C16.8411111,9.96666667 16.6111111,10.1966667 16.6111111,10.4777778 C16.6111111,10.7588889 16.8411111,10.9888889 17.1222222,10.9888889 C18.377,10.9888889 19.5372222,10.3218889 20.1786667,9.26133333 C21.2085556,9.49133333 21.9777778,10.419 21.9777778,11.5 C21.9777778,12.7445556 21.0015556,13.754 19.7544444,13.7948889 Z" id="Path" fill="url(#linearGradient-1)"></path>
                </g>
            </g>
        </g>
    </g>
</svg>