<?xml version="1.0" encoding="UTF-8"?>
<svg width="36px" height="35px" viewBox="0 0 36 35" version="1.1" xmlns="http://www.w3.org/2000/svg" xmlns:xlink="http://www.w3.org/1999/xlink">
    <title>101D2EDF-BD10-4A11-9456-B40EAAD1B8B5@2x</title>
    <g id="Page-1" stroke="none" stroke-width="1" fill="none" fill-rule="evenodd" opacity="0.5">
        <g id="10-Drugs" transform="translate(-85.000000, -81.000000)" fill="#FFFFFF" fill-rule="nonzero">
            <g id="body" transform="translate(0.000000, 14.000000)">
                <g id="Choose-a-Drug" transform="translate(113.000000, 84.000000) scale(-1, 1) translate(-113.000000, -84.000000) translate(0.000000, 54.000000)">
                    <path d="M123.949341,28.4867257 L120.576683,31.8318584 L115.55517,26.8513274 L118.927828,23.5061947 L123.949341,28.4867257 Z M115.705066,21.9823009 L114.056211,23.6176991 L109.934074,19.5292035 L111.582929,17.8938053 L115.705066,21.9823009 Z M132.868147,40.0088496 C133.242887,39.339823 133.130465,38.5221239 132.605829,37.9646018 L131.10687,36.4778761 C131.594032,35.4743363 131.66898,34.1362832 130.432339,32.9469027 L119.902151,22.5026549 L122.075642,20.3469027 C122.075642,20.3469027 122.975017,19.4548673 122.075642,18.6 L121.476058,18.0053097 C121.476058,18.0053097 120.576683,17.1132743 119.714781,18.0053097 L116.716863,20.9787611 L112.594726,16.8902655 L113.306731,16.1840708 C113.306731,16.1840708 114.206107,15.2920354 113.306731,14.4371681 L112.25746,13.3964602 C112.25746,13.3964602 111.358085,12.5044248 110.496183,13.3964602 L105.399722,18.4513274 C105.399722,18.4513274 104.500347,19.3433628 105.399722,20.1982301 L106.448994,21.2389381 C106.448994,21.2389381 107.348369,22.1309735 108.210271,21.2389381 L108.922276,20.5327434 L113.044414,24.6212389 L110.046495,27.5946903 C110.046495,27.5946903 109.14712,28.4867257 110.046495,29.3415929 L110.646079,29.9362832 C110.646079,29.9362832 111.545455,30.8283186 112.407356,29.9362832 L114.580847,27.780531 L125.111034,38.2247788 C125.860514,38.9681416 127.284525,39.6 128.708536,38.8938053 L130.170021,40.3433628 C130.73213,40.900885 131.556558,40.9752212 132.23109,40.6035398 L138.938931,47.2566372 L141,48 L132.868147,40.0088496 Z" id="heroin" transform="translate(123.000000, 30.500000) scale(-1, 1) translate(-123.000000, -30.500000) "></path>
                </g>
            </g>
        </g>
    </g>
</svg>