<?xml version="1.0" encoding="UTF-8"?>
<svg width="15px" height="19px" viewBox="0 0 15 19" version="1.1" xmlns="http://www.w3.org/2000/svg" xmlns:xlink="http://www.w3.org/1999/xlink">
    <title>F0A6913F-3BF7-4250-9962-C6DE8B12FA11@2x</title>
    <defs>
        <linearGradient x1="50%" y1="0%" x2="50%" y2="100%" id="linearGradient-1">
            <stop stop-color="#F51932" offset="0%"></stop>
            <stop stop-color="#FF00C4" offset="100%"></stop>
        </linearGradient>
    </defs>
    <g id="Page-1" stroke="none" stroke-width="1" fill="none" fill-rule="evenodd">
        <g id="ICONS" transform="translate(-327.000000, -311.000000)" fill="url(#linearGradient-1)" fill-rule="nonzero">
            <g id="tooth-loss" transform="translate(303.000000, 151.000000)">
                <path d="M32.6790824,164.085964 L36.2748036,163.028457 L32.9649563,169.680616 L34.2790717,164.672131 L30.7807243,165.62452 L33.271296,160.494875 C32.7508202,160.608646 32.1833809,160.699199 31.5006872,160.69941 C29.6611411,160.76189 28.5286322,159.992717 27.259326,160 C27.077935,160.00116 26.896544,160.021846 26.7071821,160.059418 C25.1927181,160.359995 24.1220372,161.545415 24.0210011,162.809779 C23.8286232,165.232757 25.0130505,167.685707 25.3264993,169.894228 C25.6405944,172.10296 25.4189182,172.401848 25.7776071,175.059124 C26.1490063,177.743417 26.9174406,179.169468 28.0462872,178.983929 C29.1751339,178.798179 29.3177477,175.600331 29.6686811,173.627796 C29.8186195,172.476993 30.385628,171.142761 31.4998254,171.141073 C32.6140229,171.142972 33.1810314,172.476993 33.3309698,173.627796 C33.6819032,175.601175 33.8311953,178.798179 34.9602574,178.983929 C36.089104,179.169679 36.8508601,177.743628 37.2222592,175.059124 C37.5809481,172.401848 37.3592719,172.104016 37.673367,169.894228 C37.9874621,167.685496 39.1718894,165.233601 38.9788652,162.809779 C38.87826,161.544149 38.0023267,160.283162 36.5897604,160.111977 C35.8161558,160.018258 35.6560922,160.101423 35.3286405,160.215828 L32.6790824,164.085964 Z" id="tooth"></path>
            </g>
        </g>
    </g>
</svg>