<?xml version="1.0" encoding="UTF-8"?>
<svg width="24px" height="23px" viewBox="0 0 24 23" version="1.1" xmlns="http://www.w3.org/2000/svg" xmlns:xlink="http://www.w3.org/1999/xlink">
    <title>2D956CA5-143C-451D-B1BF-7B456E09F2BE@2x</title>
    <defs>
        <linearGradient x1="50%" y1="100%" x2="50%" y2="0%" id="linearGradient-1">
            <stop stop-color="#FFFFFF" stop-opacity="0" offset="0%"></stop>
            <stop stop-color="#FFFFFF" stop-opacity="0.5" offset="100%"></stop>
        </linearGradient>
        <path d="M30.2371894,113.495917 C33.484959,111.501361 37.5150391,111.501361 40.7628087,113.495917 C44.0105782,115.490474 45.9644817,119.165425 45.865944,123.094023 L45.865944,123.094023 L45.865944,124.313352 C46.5945639,125.109903 47.0007255,126.168579 47.000001,127.269303 C46.9984433,129.084616 45.9270622,130.712323 44.3030134,131.366722 C42.6789647,132.021121 40.8361467,131.567671 39.6640966,130.225254 C37.3100104,132.551203 33.6355027,132.596275 31.2295841,130.328712 C30.4428092,131.180344 29.3584552,131.662967 28.224346,131.66628 C25.8922439,131.650083 24.0077241,129.67866 24.000001,127.247133 C23.9992725,126.14641 24.4054341,125.087734 25.1340541,124.291183 L25.1340541,124.291183 L25.1340541,123.094023 C25.0355163,119.165425 26.9894198,115.490474 30.2371894,113.495917 Z M36.6659463,118.844435 C35.5889425,120.660208 33.6811948,121.758387 31.6335901,121.741267 C31.2818347,121.742942 30.9306809,121.710783 30.584592,121.645198 L30.584592,121.645198 L30.584592,125.510512 C30.5884954,128.275957 32.7377266,130.516779 35.3901377,130.520935 L35.3901377,130.520935 C36.6735392,130.524781 37.8987685,129.998408 38.8019273,129.058147 C39.7050861,128.117887 40.21175,126.841221 40.2098801,125.510512 L40.2098801,125.510512 L40.2098801,119.982476 C38.9405558,120.020608 37.6947161,119.620537 36.6659463,118.844435 Z" id="path-2"></path>
    </defs>
    <g id="Page-1" stroke="none" stroke-width="1" fill="none" fill-rule="evenodd">
        <g id="ICONS" transform="translate(-134.000000, -261.000000)">
            <g id="mom-loss" transform="translate(112.000000, 149.000000)">
                <g id="mom" transform="translate(35.500001, 122.000000) rotate(-330.000000) translate(-35.500001, -122.000000) ">
                    <use fill-opacity="0" fill="#FFFFFF" xlink:href="#path-2"></use>
                    <use fill="url(#linearGradient-1)" xlink:href="#path-2"></use>
                </g>
            </g>
        </g>
    </g>
</svg>