<?xml version="1.0" encoding="UTF-8"?>
<svg width="19px" height="22px" viewBox="0 0 19 22" version="1.1" xmlns="http://www.w3.org/2000/svg" xmlns:xlink="http://www.w3.org/1999/xlink">
    <title>38F2D8B0-CF8B-45C2-B56E-C3D81A6FC19E@2x</title>
    <defs>
        <linearGradient x1="50%" y1="100%" x2="50%" y2="0%" id="linearGradient-1">
            <stop stop-color="#FFFFFF" stop-opacity="0" offset="0%"></stop>
            <stop stop-color="#FFFFFF" stop-opacity="0.5" offset="100%"></stop>
        </linearGradient>
        <path d="M35.6790824,115.085964 L39.2748036,114.028457 L35.9649563,120.680616 L37.2790717,115.672131 L33.7807243,116.62452 L36.271296,111.494875 C35.7508202,111.608646 35.1833809,111.699199 34.5006872,111.69941 C32.6611411,111.76189 31.5286322,110.992717 30.259326,111 C30.077935,111.00116 29.896544,111.021846 29.7071821,111.059418 C28.1927181,111.359995 27.1220372,112.545415 27.0210011,113.809779 C26.8286232,116.232757 28.0130505,118.685707 28.3264993,120.894228 C28.6405944,123.10296 28.4189182,123.401848 28.7776071,126.059124 C29.1490063,128.743417 29.9174406,130.169468 31.0462872,129.983929 C32.1751339,129.798179 32.3177477,126.600331 32.6686811,124.627796 C32.8186195,123.476993 33.385628,122.142761 34.4998254,122.141073 C35.6140229,122.142972 36.1810314,123.476993 36.3309698,124.627796 C36.6819032,126.601175 36.8311953,129.798179 37.9602574,129.983929 C39.089104,130.169679 39.8508601,128.743628 40.2222592,126.059124 C40.5809481,123.401848 40.3592719,123.104016 40.673367,120.894228 C40.9874621,118.685496 42.1718894,116.233601 41.9788652,113.809779 C41.87826,112.544149 41.0023267,111.283162 39.5897604,111.111977 C38.8161558,111.018258 38.6560922,111.101423 38.3286405,111.215828 L35.6790824,115.085964 Z" id="path-2"></path>
    </defs>
    <g id="Page-1" stroke="none" stroke-width="1" fill="none" fill-rule="evenodd">
        <g id="ICONS" transform="translate(-329.000000, -260.000000)">
            <g id="tooth-loss" transform="translate(303.000000, 151.000000)">
                <g id="tooth" transform="translate(34.500000, 120.500026) rotate(-330.000000) translate(-34.500000, -120.500026) ">
                    <use fill-opacity="0" fill="#FFFFFF" xlink:href="#path-2"></use>
                    <use fill="url(#linearGradient-1)" xlink:href="#path-2"></use>
                </g>
            </g>
        </g>
    </g>
</svg>