<?xml version="1.0" encoding="UTF-8"?>
<svg width="40px" height="35px" viewBox="0 0 40 35" version="1.1" xmlns="http://www.w3.org/2000/svg" xmlns:xlink="http://www.w3.org/1999/xlink">
    <title>77CA1520-3C3D-4708-B1E0-C3BAAB146675@2x</title>
    <g id="Page-1" stroke="none" stroke-width="1" fill="none" fill-rule="evenodd" opacity="0.5">
        <g id="10-Drugs" transform="translate(-18.000000, -81.000000)" fill="#FFFFFF" fill-rule="nonzero">
            <g id="body" transform="translate(0.000000, 14.000000)">
                <g id="Choose-a-Drug" transform="translate(113.000000, 84.000000) scale(-1, 1) translate(-113.000000, -84.000000) translate(0.000000, 54.000000)">
                    <g id="cocaine" transform="translate(168.000000, 13.000000)">
                        <path d="M39.6523418,33.6912658 C39.6523418,33.6912658 36.0925316,34.9096203 33.4879114,34.9096203 L6.35803797,34.9096203 C3.75341772,34.9096203 0.194050633,33.6912658 0.194050633,33.6912658 C0.194050633,33.6912658 3.75386076,32.4751266 6.35803797,32.4751266 L33.4883544,32.4751266 C36.0929747,32.4751266 39.6523418,33.6912658 39.6523418,33.6912658 Z" id="Path"></path>
                        <path d="M36.7234177,0.194936709 C35.8417722,0.194936709 35.0620253,0.646835443 34.5791139,1.34240506 L16.9240506,25.4525316 L16.928481,25.456962 C16.9196203,25.4746835 16.8974684,25.4835443 16.8886076,25.4968354 C16.5696203,25.9398734 16.4544304,26.4405063 16.4322785,26.9455696 L6.35759494,26.9455696 C3.75253165,26.9455696 0.194936709,28.1639241 0.194936709,28.1639241 C0.194936709,28.1639241 3.75253165,29.3778481 6.35759494,29.3778481 L13.9911392,29.3778481 C14.9968354,29.3778481 15.9803797,29.0943038 16.8310127,28.5537975 C17.0082278,28.828481 17.2253165,29.0810127 17.5088608,29.2848101 C18.7227848,30.1575949 20.4196203,29.878481 21.2968354,28.6601266 C21.3056962,28.6424051 21.3056962,28.6202532 21.3189873,28.606962 L21.3278481,28.6113924 L38.7702532,4.75822785 C38.7924051,4.72721519 38.8189873,4.69177215 38.8455696,4.65632911 C39.1778481,4.19113924 39.3772152,3.60632911 39.3772152,2.98164557 C39.3772152,1.4443038 38.1898734,0.194936709 36.7234177,0.194936709 Z M20.6526582,28.1586076 C20.0421519,29.0110127 18.8543671,29.2046203 18.001519,28.5941139 C17.8105696,28.4567722 17.6656962,28.2817722 17.5425316,28.0979114 L19.3527848,26.9446835 L17.2487975,26.9446835 C17.2678481,26.5964557 17.3489241,26.2491139 17.5677848,25.9451899 C18.1827215,25.0901266 19.3660759,24.8947468 20.2189241,25.5052532 C21.0717722,26.1179747 21.2675949,27.3062025 20.6526582,28.1586076 Z" id="Shape"></path>
                    </g>
                </g>
            </g>
        </g>
    </g>
</svg>