<?xml version="1.0" encoding="UTF-8"?>
<svg width="35px" height="35px" viewBox="0 0 35 35" version="1.1" xmlns="http://www.w3.org/2000/svg" xmlns:xlink="http://www.w3.org/1999/xlink">
    <title>F9D279E6-AEF3-4A50-A61D-4A8CCADFE2C7@2x</title>
    <g id="Page-1" stroke="none" stroke-width="1" fill="none" fill-rule="evenodd">
        <g id="10-Drugs" transform="translate(-148.000000, -81.000000)" fill="#FFFFFF" fill-rule="nonzero">
            <g id="body" transform="translate(0.000000, 14.000000)">
                <g id="Choose-a-Drug" transform="translate(113.000000, 84.000000) scale(-1, 1) translate(-113.000000, -84.000000) translate(0.000000, 54.000000)">
                    <path d="M77.9920887,33.854252 C77.9890824,33.8042181 77.9792048,33.7548357 77.9627339,33.7074943 C77.9565242,33.6894318 77.9525726,33.6708049 77.9446694,33.6510491 C77.9181031,33.5912647 77.8812236,33.5366205 77.8357178,33.4896156 L77.8357178,33.4862289 L77.8357178,33.4862289 C77.7882877,33.4389154 77.7326169,33.4006579 77.6714436,33.3733384 C77.6533791,33.365436 77.6341856,33.3614849 77.614992,33.3552759 C77.5691613,33.3397538 77.5215534,33.3300815 77.4732985,33.3264888 C77.4608792,33.3264888 77.4501534,33.3197154 77.4371695,33.3197154 L68.4258006,33.3197154 C68.2241236,33.3197205 68.0377683,33.4273039 67.9369298,33.6019417 L67.8945911,33.675885 L70.0849131,23.2764098 C70.1227967,23.0956852 70.0698792,22.9078596 69.9432196,22.7734826 L60.9109636,13.1777879 C60.9030604,13.1693212 60.8912056,13.1664989 60.8827378,13.1585966 C60.8386778,13.117034 60.7881533,13.0829099 60.7331411,13.0575595 C60.7280605,13.0575595 60.7235443,13.051915 60.7178992,13.0496572 C60.5799783,12.9834476 60.4194492,12.9834476 60.2815283,13.0496572 L60.2696735,13.0558662 C60.2132531,13.0814879 60.1615387,13.1164055 60.1166896,13.159161 C60.1082219,13.1664989 60.0963671,13.1693212 60.0890284,13.1777879 L51.0567724,22.7734826 C50.9303149,22.9079662 50.877612,23.0957785 50.9156434,23.2764098 L53.0918526,33.6137952 L53.0867719,33.6053284 C52.9855884,33.4305581 52.7987358,33.3231514 52.596772,33.3236665 L43.564516,33.2999595 L43.564516,33.2999595 C43.5520967,33.2999595 43.5408064,33.3061685 43.528387,33.3072974 C43.4826651,33.3104601 43.4375243,33.3193735 43.3940322,33.3338267 C43.3731815,33.339302 43.3526409,33.3458969 43.3325,33.3535825 C43.2737076,33.3795024 43.2198476,33.415405 43.1733065,33.4596996 L43.1659678,33.4647797 C43.1659678,33.4647797 43.1625807,33.4709887 43.1603226,33.4732465 C43.1155373,33.5197227 43.0794064,33.5738174 43.0536291,33.6329866 C43.0457258,33.6504846 43.0417742,33.6691116 43.0355646,33.6894318 C43.0197356,33.7359256 43.0102416,33.7843393 43.0073388,33.8333673 C43.0043715,33.8435855 43.0019222,33.853947 43,33.8644122 L43,42.9193612 C43,43.1229615 43.1095008,43.310828 43.2867742,43.4109994 L51.2701594,47.9266204 C51.3550874,47.9745697 51.4509344,48 51.5484658,48 L54.854836,48 C55.0047383,48 55.1485324,47.9406157 55.2545133,47.8346146 L56.8780614,46.2112489 L59.0232221,47.8808997 C59.122675,47.958076 59.2450741,48 59.370964,47.9994348 L61.629028,47.9994348 C61.7545976,47.9993854 61.8765664,47.9574757 61.9756408,47.8803353 L64.1208016,46.21012 L65.7449141,47.8346146 C65.8511258,47.9405474 65.9951392,48 66.145156,47.9994348 L69.532252,47.9994348 C69.6311929,48 69.7285305,47.9744461 69.81451,47.9254915 L77.717734,43.4098705 C77.8929164,43.3087414 78.0005932,43.1216203 78,42.9193612 L78,33.8881192 C78,33.8762657 77.9926532,33.8661055 77.9920887,33.854252 Z M74.314267,41.4337219 L76.87096,36.2915584 L76.87096,42.1618657 L74.314267,41.4337219 Z M70.5071711,37.9905608 L76.1771698,35.147413 L73.3506382,40.8359665 L70.5071711,37.9905608 Z M68.2491071,35.3246511 L68.9333005,37.7179302 L64.451608,43.5481614 L64.451608,41.9406003 L68.2491071,35.3246511 Z M69.1743488,34.4525718 L75.0492668,34.4525718 L69.9121712,37.029298 L69.1743488,34.4525718 Z M63.3970921,41.5082296 C63.3477605,41.5940735 63.3220499,41.6914511 63.322576,41.7904559 L63.322576,45.1771717 C63.3239278,45.243641 63.3369201,45.309359 63.3609631,45.3713434 L62.4317697,46.0949716 L65.5428174,27.9517709 L68.5883812,24.9037268 L66.0723334,36.8520599 L63.3970921,41.5082296 Z M56.652255,28.2435929 L64.346608,28.2435929 L61.152012,46.8705295 L59.8462865,46.8705295 L56.652255,28.2435929 Z M52.2541108,23.1516658 L59.2016092,15.7691899 L55.7275778,26.6241784 L52.2541108,23.1516658 Z M65.2712852,26.6253073 L61.7983828,15.7691899 L68.7453167,23.1511014 L65.2712852,26.6253073 Z M64.2427371,27.1146877 L56.7566904,27.1146877 L60.499996,15.4192293 L64.2427371,27.1146877 Z M52.4116108,24.9054201 L55.4566101,27.9534643 L58.5676577,46.0977939 L57.6373354,45.3747301 C57.6623295,45.3129624 57.6759096,45.2471733 57.677416,45.1805584 L57.7011257,41.8502879 C57.7016367,41.751358 57.6761342,41.6540314 57.6271741,41.5680616 L54.9220134,36.8266595 L52.4116108,24.9054201 Z M46.7071766,41.4337219 L44.129032,42.1703325 L44.129032,36.2616425 L46.7071766,41.4337219 Z M47.6708054,40.836531 L44.8262093,35.1299149 L50.5154015,37.9911253 L47.6708054,40.836531 Z M45.9552413,34.4350738 L51.8482238,34.4525718 L51.114353,37.0304269 L45.9552413,34.4350738 Z M52.7700784,35.331989 L56.5704001,41.99253 L56.5596743,43.5306634 L52.0887076,37.720188 L52.7700784,35.331989 Z M45.0153222,43.0915192 L47.3964506,42.4113538 L53.1940299,46.8705295 L51.6935464,46.8705295 L45.0153222,43.0915192 Z M54.8051586,46.6848246 L48.3696762,41.7345751 L51.4112884,38.6927399 L56.3626582,45.1274998 L54.8051586,46.6848246 Z M64.6497531,45.1416111 L69.6101552,38.6927399 L72.6528964,41.7351396 L66.2016076,46.6949848 L64.6497531,45.1416111 Z M69.3815262,46.8705295 L67.8285427,46.8705295 L73.6255575,42.4113538 L75.9965247,43.0886969 L69.3815262,46.8705295 Z" id="meth"></path>
                </g>
            </g>
        </g>
    </g>
</svg>