<?xml version="1.0" encoding="UTF-8"?>
<svg width="23px" height="20px" viewBox="0 0 23 20" version="1.1" xmlns="http://www.w3.org/2000/svg" xmlns:xlink="http://www.w3.org/1999/xlink">
    <title>048360F2-F097-4DE2-A72B-FDFC04D2D26B@2x</title>
    <defs>
        <linearGradient x1="50%" y1="0%" x2="50%" y2="100%" id="linearGradient-1">
            <stop stop-color="#F51932" offset="0%"></stop>
            <stop stop-color="#FF00C4" offset="100%"></stop>
        </linearGradient>
    </defs>
    <g id="Page-1" stroke="none" stroke-width="1" fill="none" fill-rule="evenodd">
        <g id="ICONS" transform="translate(-131.000000, -311.000000)" fill="url(#linearGradient-1)" fill-rule="nonzero">
            <g id="mom-loss" transform="translate(112.000000, 149.000000)">
                <path d="M25.2371894,163.495917 C28.484959,161.501361 32.5150391,161.501361 35.7628087,163.495917 C39.0105782,165.490474 40.9644817,169.165425 40.865944,173.094023 L40.865944,173.094023 L40.865944,174.313352 C41.5945639,175.109903 42.0007255,176.168579 42.000001,177.269303 C41.9984433,179.084616 40.9270622,180.712323 39.3030134,181.366722 C37.6789647,182.021121 35.8361467,181.567671 34.6640966,180.225254 C32.3100104,182.551203 28.6355027,182.596275 26.2295841,180.328712 C25.4428092,181.180344 24.3584552,181.662967 23.224346,181.66628 C20.8922439,181.650083 19.0077241,179.67866 19.000001,177.247133 C18.9992725,176.14641 19.4054341,175.087734 20.1340541,174.291183 L20.1340541,174.291183 L20.1340541,173.094023 C20.0355163,169.165425 21.9894198,165.490474 25.2371894,163.495917 Z M31.6659463,168.844435 C30.5889425,170.660208 28.6811948,171.758387 26.6335901,171.741267 C26.2818347,171.742942 25.9306809,171.710783 25.584592,171.645198 L25.584592,171.645198 L25.584592,175.510512 C25.5884954,178.275957 27.7377266,180.516779 30.3901377,180.520935 L30.3901377,180.520935 C31.6735392,180.524781 32.8987685,179.998408 33.8019273,179.058147 C34.7050861,178.117887 35.21175,176.841221 35.2098801,175.510512 L35.2098801,175.510512 L35.2098801,169.982476 C33.9405558,170.020608 32.6947161,169.620537 31.6659463,168.844435 Z" id="mom"></path>
            </g>
        </g>
    </g>
</svg>