<?xml version="1.0" encoding="UTF-8"?>
<svg width="16px" height="18px" viewBox="0 0 16 18" version="1.1" xmlns="http://www.w3.org/2000/svg" xmlns:xlink="http://www.w3.org/1999/xlink">
    <title>C656F4C3-AD68-4868-A189-CCEB61020A75@2x</title>
    <g id="Page-1" stroke="none" stroke-width="1" fill="none" fill-rule="evenodd">
        <g id="40-Drugs" transform="translate(-331.000000, -89.000000)" fill="#FFFFFF">
            <g id="Body" transform="translate(0.000000, 14.000000)">
                <g id="share" transform="translate(317.000000, 62.000000)">
                    <path d="M26.578217,13.00002 C28.468033,13.00002 30.000231,14.510802 30.000231,16.374699 C30.000231,18.23889 28.468033,19.749945 26.578217,19.749945 C25.6045936,19.749945 24.725888,19.3488641 24.1027269,18.7050478 L20.6026368,20.7533199 C20.7581131,21.1389318 20.84358,21.5594711 20.84358,21.999654 C20.84358,22.5027028 20.7320555,22.9800395 20.5320473,23.4089089 L24.0129358,25.3912572 C24.639958,24.6913663 25.5568611,24.249909 26.578217,24.249909 C28.468033,24.249909 30.000231,25.761258 30.000231,27.624588 C30.000231,29.488758 28.468033,31.000128 26.578217,31.000128 C24.68842,31.000128 23.156222,29.488758 23.156222,27.624588 C23.156222,27.4753828 23.1660463,27.3284345 23.1850919,27.1843383 L19.1752639,24.8987526 C18.662463,25.2011318 18.0626556,25.3749 17.421566,25.3749 C15.532301,25.3749 14.000103,23.863824 14.000103,21.999654 C14.000103,20.136303 15.532301,18.624954 17.421566,18.624954 C18.1186879,18.624954 18.7669961,18.830462 19.3076984,19.1833469 L23.1982722,16.9053605 C23.1705944,16.7324872 23.156222,16.5552494 23.156222,16.374699 C23.156222,14.510802 24.68842,13.00002 26.578217,13.00002 Z M26.562219,26.140581 C25.725136,26.140581 25.046722,26.805084 25.046722,27.624588 C25.046722,28.444932 25.725136,29.109729 26.562219,29.109729 C27.399302,29.109729 28.078419,28.444932 28.078419,27.624588 C28.078419,26.805084 27.399302,26.140581 26.562219,26.140581 Z M17.437583,20.499855 C16.6005,20.499855 15.921915,21.171687 15.921915,21.999654 C15.921915,22.828461 16.6005,23.499999 17.437583,23.499999 C18.274647,23.499999 18.95308,22.828461 18.95308,21.999654 C18.95308,21.171687 18.274647,20.499855 17.437583,20.499855 Z M26.562219,14.890398 C25.725136,14.890398 25.046722,15.555489 25.046722,16.374699 C25.046722,17.194497 25.725136,17.859273 26.562219,17.859273 C27.399302,17.859273 28.078419,17.194497 28.078419,16.374699 C28.078419,15.555489 27.399302,14.890398 26.562219,14.890398 Z" id="Combined-shape-36974" style="mix-blend-mode: overlay;"></path>
                </g>
            </g>
        </g>
    </g>
</svg>